<svg width="21" height="21" viewBox="0 0 21 21" fill="none" xmlns="http://www.w3.org/2000/svg">
<path d="M11.6667 21V18.6667H14V21H11.6667ZM9.33333 18.6667V12.8333H11.6667V18.6667H9.33333ZM18.6667 15.1667V10.5H21V15.1667H18.6667ZM16.3333 10.5V8.16667H18.6667V10.5H16.3333ZM2.33333 12.8333V10.5H4.66667V12.8333H2.33333ZM0 10.5V8.16667H2.33333V10.5H0ZM10.5 2.33333V0H12.8333V2.33333H10.5ZM1.75 5.25H5.25V1.75H1.75V5.25ZM0 7V0H7V7H0ZM1.75 19.25H5.25V15.75H1.75V19.25ZM0 21V14H7V21H0ZM15.75 5.25H19.25V1.75H15.75V5.25ZM14 7V0H21V7H14ZM16.3333 21V17.5H14V15.1667H18.6667V18.6667H21V21H16.3333ZM11.6667 12.8333V10.5H16.3333V12.8333H11.6667ZM7 12.8333V10.5H4.66667V8.16667H11.6667V10.5H9.33333V12.8333H7ZM8.16667 7V2.33333H10.5V4.66667H12.8333V7H8.16667ZM2.625 4.375V2.625H4.375V4.375H2.625ZM2.625 18.375V16.625H4.375V18.375H2.625ZM16.625 4.375V2.625H18.375V4.375H16.625Z" fill="#F20D33"/>
</svg>
